<svg width="15" height="15" viewBox="0 0 15 15" fill="none" xmlns="http://www.w3.org/2000/svg">
<g clip-path="url(#clip0_347_139)">
<path d="M6.875 2.50024H2.5C2.16848 2.50024 1.85054 2.63194 1.61612 2.86636C1.3817 3.10078 1.25 3.41872 1.25 3.75024V12.5002C1.25 12.8318 1.3817 13.1497 1.61612 13.3841C1.85054 13.6185 2.16848 13.7502 2.5 13.7502H11.25C11.5815 13.7502 11.8995 13.6185 12.1339 13.3841C12.3683 13.1497 12.5 12.8318 12.5 12.5002V8.12524" stroke="white" stroke-linecap="round" stroke-linejoin="round"/>
<path d="M11.563 1.56215C11.8116 1.31351 12.1489 1.17383 12.5005 1.17383C12.8521 1.17383 13.1893 1.31351 13.438 1.56215C13.6866 1.81079 13.8263 2.14802 13.8263 2.49965C13.8263 2.85128 13.6866 3.18851 13.438 3.43715L7.50049 9.37465L5.00049 9.99965L5.62549 7.49965L11.563 1.56215Z" stroke="white" stroke-linecap="round" stroke-linejoin="round"/>
</g>
<defs>
<clipPath id="clip0_347_139">
<rect width="15" height="15" fill="white"/>
</clipPath>
</defs>
</svg>
