<svg width="50" height="54" viewBox="0 0 50 54" fill="none" xmlns="http://www.w3.org/2000/svg">
<path d="M18.6454 44.8662C6.75584 48.4331 6.75584 38.9214 2 37.7325M35.2909 52V42.7975C35.3801 41.6636 35.2269 40.5237 34.8415 39.4536C34.4561 38.3835 33.8473 37.4077 33.0556 36.5911C40.5223 35.7588 48.3694 32.9291 48.3694 19.9457C48.3688 16.6257 47.0917 13.433 44.8025 11.0285C45.8865 8.12385 45.8099 4.91329 44.5885 2.06371C44.5885 2.06371 41.7826 1.23144 35.2909 5.58303C29.8407 4.10592 24.0956 4.10592 18.6454 5.58303C12.1537 1.23144 9.34777 2.06371 9.34777 2.06371C8.12641 4.91329 8.04977 8.12385 9.13376 11.0285C6.82748 13.4508 5.5491 16.6724 5.56688 20.017C5.56688 32.9053 13.414 35.735 20.8807 36.6624C20.0983 37.4709 19.495 38.4349 19.1099 39.492C18.7247 40.549 18.5665 41.6752 18.6454 42.7975V52" stroke="#9CA3AF" stroke-width="3" stroke-linecap="round" stroke-linejoin="round"/>
</svg>
