<svg width="50" height="50" viewBox="0 0 50 50" fill="none" xmlns="http://www.w3.org/2000/svg">
<path d="M33.334 16.6665C36.6492 16.6665 39.8286 17.9835 42.1728 20.3277C44.517 22.6719 45.834 25.8513 45.834 29.1665V43.7498H37.5007V29.1665C37.5007 28.0614 37.0617 27.0016 36.2803 26.2202C35.4989 25.4388 34.4391 24.9998 33.334 24.9998C32.2289 24.9998 31.1691 25.4388 30.3877 26.2202C29.6063 27.0016 29.1673 28.0614 29.1673 29.1665V43.7498H20.834V29.1665C20.834 25.8513 22.1509 22.6719 24.4952 20.3277C26.8394 17.9835 30.0188 16.6665 33.334 16.6665V16.6665Z" stroke="#9CA3AF" stroke-width="3" stroke-linecap="round" stroke-linejoin="round"/>
<path d="M12.5008 18.7502H4.16748V43.7502H12.5008V18.7502Z" stroke="#9CA3AF" stroke-width="3" stroke-linecap="round" stroke-linejoin="round"/>
<path d="M8.33415 12.5006C10.6353 12.5006 12.5008 10.6351 12.5008 8.3339C12.5008 6.03272 10.6353 4.16724 8.33415 4.16724C6.03296 4.16724 4.16748 6.03272 4.16748 8.3339C4.16748 10.6351 6.03296 12.5006 8.33415 12.5006Z" stroke="#9CA3AF" stroke-width="3" stroke-linecap="round" stroke-linejoin="round"/>
</svg>
