<svg width="197" height="31" viewBox="0 0 197 31" fill="none" xmlns="http://www.w3.org/2000/svg">
<path d="M13.3474 12.8945C13.4906 12.8945 13.6143 12.9466 13.7185 13.0508C13.8227 13.1549 13.8813 13.2852 13.8943 13.4414C13.8943 13.5846 13.8422 13.7148 13.738 13.832C13.6339 13.9362 13.5102 13.9883 13.3669 13.9883C12.8982 14.0143 12.4294 14.0469 11.9607 14.0859C11.505 14.112 11.0948 14.1445 10.7302 14.1836C10.3656 14.2096 10.0597 14.2422 9.81226 14.2812C9.56486 14.3073 9.42163 14.3203 9.38257 14.3203C9.40861 14.6849 9.44116 15.0951 9.48022 15.5508C9.51929 15.9935 9.55835 16.4492 9.59741 16.918C9.6495 17.3737 9.69507 17.8229 9.73413 18.2656C9.78621 18.7083 9.82528 19.1055 9.85132 19.457C9.89038 19.7956 9.92293 20.0755 9.94897 20.2969C9.97502 20.5052 9.98804 20.6159 9.98804 20.6289C9.98804 20.7721 9.93595 20.8958 9.83179 21C9.74064 21.1042 9.60392 21.1628 9.42163 21.1758C9.2784 21.1758 9.1547 21.1302 9.05054 21.0391C8.95939 20.9479 8.90731 20.8307 8.89429 20.6875C8.88127 20.6484 8.85522 20.4727 8.81616 20.1602C8.79012 19.8477 8.75106 19.4635 8.69897 19.0078C8.65991 18.5391 8.61434 18.0247 8.56226 17.4648C8.51017 16.9049 8.45809 16.3581 8.40601 15.8242C8.36694 15.2773 8.32788 14.776 8.28882 14.3203C8.26278 13.8646 8.24976 13.5065 8.24976 13.2461C8.24976 12.8555 8.23022 12.3542 8.19116 11.7422C8.16512 11.1302 8.12606 10.5052 8.07397 9.86719C8.02189 9.21615 7.9633 8.59766 7.89819 8.01172C7.83309 7.42578 7.76799 6.95703 7.70288 6.60547C7.70288 6.47526 7.74845 6.35807 7.8396 6.25391C7.93075 6.14974 8.06746 6.08464 8.24976 6.05859C8.53621 6.05859 8.712 6.19531 8.7771 6.46875C8.86825 6.33854 8.99194 6.26042 9.14819 6.23438C9.17424 6.23438 9.33049 6.21484 9.61694 6.17578C9.91642 6.13672 10.2875 6.09766 10.7302 6.05859C11.186 6.00651 11.6873 5.96094 12.2341 5.92188C12.781 5.88281 13.3214 5.86328 13.8552 5.86328C14.9229 5.86328 15.7693 5.90885 16.3943 6C17.0323 6.09115 17.3643 6.14323 17.3904 6.15625C17.6768 6.22135 17.8136 6.4362 17.8005 6.80078C17.7615 7.08724 17.5466 7.23047 17.156 7.23047C16.8956 7.19141 16.5961 7.14583 16.2576 7.09375C15.9711 7.06771 15.6195 7.04167 15.2029 7.01562C14.7992 6.97656 14.35 6.95703 13.8552 6.95703C13.3474 6.95703 12.8266 6.97656 12.2927 7.01562C11.7589 7.05469 11.2641 7.10026 10.8083 7.15234C10.3656 7.19141 9.99455 7.23047 9.69507 7.26953C9.40861 7.30859 9.25236 7.32812 9.22632 7.32812C9.10913 7.32812 8.99845 7.29557 8.89429 7.23047C8.95939 7.66016 9.01799 8.15495 9.07007 8.71484C9.12215 9.27474 9.16772 9.83464 9.20679 10.3945C9.24585 10.9544 9.2784 11.4883 9.30444 11.9961C9.33049 12.4909 9.34351 12.901 9.34351 13.2266C9.46069 13.2135 9.6495 13.194 9.90991 13.168C10.1703 13.1289 10.4763 13.0964 10.8279 13.0703C11.1925 13.0312 11.5896 12.9987 12.0193 12.9727C12.449 12.9466 12.8852 12.9206 13.3279 12.8945H13.3474ZM19.0505 13.2461C19.0505 13.4935 19.0636 13.8451 19.0896 14.3008C19.1287 14.7565 19.1677 15.2578 19.2068 15.8047C19.2589 16.3385 19.311 16.8919 19.363 17.4648C19.4151 18.0247 19.4672 18.5391 19.5193 19.0078C19.5714 19.4635 19.6104 19.8477 19.6365 20.1602C19.6755 20.4596 19.6951 20.6159 19.6951 20.6289C19.6951 20.7721 19.643 20.8958 19.5388 21C19.4477 21.1042 19.3175 21.1628 19.1482 21.1758C19.005 21.1758 18.8813 21.1302 18.7771 21.0391C18.686 20.9479 18.6274 20.8307 18.6013 20.6875C18.6013 20.6484 18.5818 20.4727 18.5427 20.1602C18.5167 19.8477 18.4776 19.4635 18.4255 19.0078C18.3735 18.5391 18.3214 18.0247 18.2693 17.4648C18.2172 16.9049 18.1651 16.3581 18.113 15.8242C18.074 15.2773 18.0349 14.776 17.9958 14.3203C17.9698 13.8646 17.9568 13.5065 17.9568 13.2461C17.9568 12.8555 17.9373 12.3542 17.8982 11.7422C17.8722 11.1302 17.8331 10.5052 17.781 9.86719C17.7289 9.21615 17.6703 8.59766 17.6052 8.01172C17.5401 7.42578 17.475 6.95703 17.4099 6.60547C17.4099 6.47526 17.4555 6.35807 17.5466 6.25391C17.6378 6.14974 17.7745 6.08464 17.9568 6.05859C18.087 6.05859 18.2042 6.09766 18.3083 6.17578C18.4125 6.25391 18.4776 6.35807 18.5037 6.48828C18.5688 6.85286 18.6339 7.34115 18.699 7.95312C18.7641 8.55208 18.8227 9.18359 18.8748 9.84766C18.9268 10.5117 18.9659 11.1562 18.9919 11.7812C19.031 12.3932 19.0505 12.8815 19.0505 13.2461ZM32.449 13.2461C32.449 13.4935 32.462 13.8451 32.488 14.3008C32.5271 14.7565 32.5662 15.2578 32.6052 15.8047C32.6573 16.3385 32.7094 16.8919 32.7615 17.4648C32.8136 18.0247 32.8656 18.5391 32.9177 19.0078C32.9698 19.4635 33.0089 19.8477 33.0349 20.1602C33.074 20.4596 33.0935 20.6159 33.0935 20.6289C33.0935 20.8763 32.9568 21.0651 32.6833 21.1953C32.5922 21.2474 32.4945 21.2734 32.3904 21.2734C32.1951 21.2734 32.0388 21.1953 31.9216 21.0391C31.8956 21 31.7784 20.8242 31.5701 20.5117C31.3617 20.1992 31.1078 19.8151 30.8083 19.3594C30.5089 18.8906 30.1703 18.3763 29.7927 17.8164C29.4281 17.2565 29.0766 16.7096 28.738 16.1758C28.3995 15.6419 28.087 15.1471 27.8005 14.6914C27.5141 14.2357 27.2992 13.8776 27.156 13.6172C26.9477 13.2526 26.6742 12.7969 26.3357 12.25C26.0102 11.6901 25.6586 11.1172 25.281 10.5312C24.9164 9.94531 24.5518 9.3724 24.1873 8.8125C23.8227 8.2526 23.5037 7.78385 23.2302 7.40625C23.2823 7.83594 23.3344 8.32422 23.3865 8.87109C23.4386 9.41797 23.4841 9.96484 23.5232 10.5117C23.5623 11.0586 23.5883 11.5729 23.6013 12.0547C23.6274 12.5365 23.6404 12.9336 23.6404 13.2461C23.6404 13.4935 23.6534 13.8451 23.6794 14.3008C23.7185 14.7565 23.7576 15.2578 23.7966 15.8047C23.8487 16.3385 23.9008 16.8919 23.9529 17.4648C24.005 18.0247 24.057 18.5391 24.1091 19.0078C24.1612 19.4635 24.2003 19.8477 24.2263 20.1602C24.2654 20.4596 24.2849 20.6159 24.2849 20.6289C24.2849 20.7721 24.2328 20.8958 24.1287 21C24.0375 21.1042 23.9073 21.1628 23.738 21.1758C23.5948 21.1758 23.4711 21.1302 23.3669 21.0391C23.2628 20.9479 23.2042 20.8307 23.1912 20.6875C23.1912 20.6484 23.1716 20.4727 23.1326 20.1602C23.1065 19.8477 23.0675 19.4635 23.0154 19.0078C22.9633 18.5391 22.9112 18.0247 22.8591 17.4648C22.807 16.9049 22.755 16.3581 22.7029 15.8242C22.6638 15.2773 22.6248 14.776 22.5857 14.3203C22.5597 13.8646 22.5466 13.5065 22.5466 13.2461C22.5466 12.8555 22.5271 12.3542 22.488 11.7422C22.462 11.1302 22.4229 10.5052 22.3708 9.86719C22.3188 9.21615 22.2602 8.59766 22.1951 8.01172C22.13 7.42578 22.0649 6.95703 21.9998 6.60547C21.9998 6.47526 22.0453 6.35807 22.1365 6.25391C22.2276 6.14974 22.3643 6.08464 22.5466 6.05859C22.6508 6.05859 22.7419 6.07812 22.8201 6.11719C22.9112 6.15625 22.9893 6.20182 23.0544 6.25391C23.1586 6.1888 23.2693 6.15625 23.3865 6.15625C23.5688 6.15625 23.7185 6.22786 23.8357 6.37109C24.018 6.60547 24.2263 6.90495 24.4607 7.26953C24.7081 7.62109 24.9685 8.00521 25.2419 8.42188C25.5154 8.83854 25.7888 9.26823 26.0623 9.71094C26.3487 10.1536 26.6222 10.5833 26.8826 11C27.143 11.4167 27.3774 11.8073 27.5857 12.1719C27.794 12.5365 27.9698 12.8424 28.113 13.0898C28.2563 13.3503 28.4711 13.7083 28.7576 14.1641C29.044 14.6198 29.363 15.1211 29.7146 15.668C30.0662 16.2148 30.4242 16.7747 30.7888 17.3477C31.1664 17.9076 31.505 18.4154 31.8044 18.8711C31.7524 18.4023 31.7003 17.8945 31.6482 17.3477C31.5961 16.8008 31.544 16.2669 31.4919 15.7461C31.4529 15.2253 31.4203 14.7435 31.3943 14.3008C31.3682 13.8581 31.3552 13.5065 31.3552 13.2461C31.3552 12.8555 31.3357 12.3542 31.2966 11.7422C31.2706 11.1302 31.2315 10.5052 31.1794 9.86719C31.1274 9.21615 31.0688 8.59766 31.0037 8.01172C30.9386 7.42578 30.8735 6.95703 30.8083 6.60547C30.8083 6.47526 30.8539 6.35807 30.9451 6.25391C31.0362 6.14974 31.1729 6.08464 31.3552 6.05859C31.4854 6.05859 31.6026 6.09766 31.7068 6.17578C31.811 6.25391 31.8761 6.35807 31.9021 6.48828C31.9672 6.85286 32.0323 7.34115 32.0974 7.95312C32.1625 8.55208 32.2211 9.18359 32.2732 9.84766C32.3253 10.5117 32.3643 11.1562 32.3904 11.7812C32.4294 12.3932 32.449 12.8815 32.449 13.2461ZM42.2927 20.1797C43.0219 19.9714 43.6143 19.6328 44.0701 19.1641C44.5258 18.6823 44.8839 18.1289 45.1443 17.5039C45.4047 16.8789 45.5805 16.2214 45.6716 15.5312C45.7628 14.8281 45.8083 14.151 45.8083 13.5C45.8083 12.6406 45.6586 11.8789 45.3591 11.2148C45.0727 10.5378 44.7146 9.95833 44.2849 9.47656C43.8552 8.98177 43.393 8.58464 42.8982 8.28516C42.4034 7.98568 41.9542 7.78385 41.5505 7.67969C40.9255 7.51042 40.3852 7.39323 39.9294 7.32812C39.4867 7.26302 39.0766 7.23047 38.699 7.23047C38.3214 7.23047 37.9633 7.26302 37.6248 7.32812C37.2992 7.38021 36.9477 7.45182 36.5701 7.54297C36.6222 7.98568 36.6677 8.48047 36.7068 9.02734C36.7589 9.5612 36.8044 10.0951 36.8435 10.6289C36.8826 11.1497 36.9086 11.6445 36.9216 12.1133C36.9477 12.569 36.9607 12.9466 36.9607 13.2461C36.9607 13.4674 36.9737 13.7669 36.9998 14.1445C37.0258 14.5091 37.0518 14.9193 37.0779 15.375C37.1169 15.8307 37.156 16.306 37.1951 16.8008C37.2472 17.2826 37.2927 17.7513 37.3318 18.207C37.3839 18.6497 37.4294 19.0534 37.4685 19.418C37.5076 19.7826 37.5401 20.0625 37.5662 20.2578C37.9438 20.2839 38.3409 20.3034 38.7576 20.3164C39.1873 20.3164 39.6104 20.3164 40.0271 20.3164C40.5479 20.3164 41.0102 20.3099 41.4138 20.2969C41.8175 20.2708 42.1104 20.2318 42.2927 20.1797ZM41.824 6.625C42.3318 6.76823 42.8787 7.01562 43.4646 7.36719C44.0636 7.71875 44.6169 8.18099 45.1248 8.75391C45.6326 9.3138 46.0557 9.99089 46.3943 10.7852C46.7328 11.5794 46.9021 12.4844 46.9021 13.5C46.9021 14.8411 46.7654 15.974 46.4919 16.8984C46.2315 17.8229 45.893 18.5846 45.4763 19.1836C45.0597 19.7695 44.5974 20.2253 44.0896 20.5508C43.5818 20.8633 43.0805 21.0911 42.5857 21.2344C42.3513 21.2995 41.9932 21.3451 41.5115 21.3711C41.0427 21.3971 40.5414 21.4102 40.0076 21.4102C39.669 21.4102 39.3305 21.4036 38.9919 21.3906C38.6664 21.3906 38.3669 21.3841 38.0935 21.3711C37.8201 21.3711 37.5857 21.3646 37.3904 21.3516C37.2081 21.3385 37.0844 21.332 37.0193 21.332C36.8761 21.332 36.7524 21.2734 36.6482 21.1562C36.557 21.0391 36.5115 20.8828 36.5115 20.6875C36.4985 20.6484 36.4724 20.4727 36.4333 20.1602C36.4073 19.8477 36.3682 19.4635 36.3162 19.0078C36.2771 18.5391 36.2315 18.0247 36.1794 17.4648C36.1274 16.9049 36.0753 16.3581 36.0232 15.8242C35.9841 15.2773 35.9451 14.776 35.906 14.3203C35.88 13.8646 35.8669 13.5065 35.8669 13.2461C35.8669 12.9206 35.8539 12.5169 35.8279 12.0352C35.8149 11.5534 35.7888 11.0521 35.7498 10.5312C35.7107 9.9974 35.6651 9.47656 35.613 8.96875C35.561 8.44792 35.5089 7.97917 35.4568 7.5625C35.4307 7.53646 35.4047 7.4974 35.3787 7.44531C35.3526 7.38021 35.3266 7.28906 35.3005 7.17188C35.3005 7.06771 35.3201 6.97656 35.3591 6.89844C35.3591 6.8724 35.3526 6.83984 35.3396 6.80078C35.3396 6.7487 35.3331 6.68359 35.3201 6.60547C35.3201 6.47526 35.3656 6.35807 35.4568 6.25391C35.5479 6.14974 35.6847 6.08464 35.8669 6.05859C36.1534 6.05859 36.3292 6.19531 36.3943 6.46875C36.7849 6.36458 37.156 6.28646 37.5076 6.23438C37.8722 6.16927 38.2693 6.13672 38.699 6.13672C39.1026 6.13672 39.5518 6.17578 40.0466 6.25391C40.5544 6.31901 41.1469 6.44271 41.824 6.625ZM70.3005 13.2461C70.3005 13.4935 70.3136 13.8451 70.3396 14.3008C70.3787 14.7565 70.4177 15.2578 70.4568 15.8047C70.5089 16.3385 70.561 16.8919 70.613 17.4648C70.6651 18.0247 70.7107 18.5391 70.7498 19.0078C70.8018 19.4635 70.8409 19.8477 70.8669 20.1602C70.906 20.4596 70.9255 20.6159 70.9255 20.6289C70.9255 20.7721 70.88 20.8958 70.7888 21C70.6977 21.1042 70.561 21.1628 70.3787 21.1758C70.2354 21.1758 70.1117 21.1302 70.0076 21.0391C69.9164 20.9479 69.8578 20.8307 69.8318 20.6875C69.8318 20.6484 69.8123 20.4727 69.7732 20.1602C69.7472 19.8477 69.7081 19.4635 69.656 19.0078C69.6169 18.5391 69.5714 18.0247 69.5193 17.4648C69.4672 16.9049 69.4151 16.3581 69.363 15.8242C69.324 15.2773 69.2849 14.776 69.2458 14.3203C69.2198 13.8646 69.2068 13.5065 69.2068 13.2461C69.2068 12.9727 69.2003 12.6406 69.1873 12.25C69.1742 11.8594 69.1482 11.4427 69.1091 11C69.0831 10.5573 69.0505 10.1081 69.0115 9.65234C68.9724 9.19661 68.9333 8.76693 68.8943 8.36328C68.5818 8.89714 68.2367 9.4375 67.8591 9.98438C67.4815 10.5182 67.143 11 66.8435 11.4297C66.7133 11.612 66.5375 11.8854 66.3162 12.25C66.0948 12.6146 65.8539 13.0182 65.5935 13.4609C65.3461 13.9036 65.0922 14.3594 64.8318 14.8281C64.5844 15.2839 64.35 15.7005 64.1287 16.0781C63.9203 16.4557 63.7445 16.7682 63.6013 17.0156C63.4711 17.263 63.406 17.3932 63.406 17.4062C63.3018 17.5885 63.1456 17.6797 62.9373 17.6797C62.8461 17.6797 62.755 17.6602 62.6638 17.6211C62.4815 17.5169 62.3904 17.3542 62.3904 17.1328C62.3904 17.0417 62.4099 16.957 62.449 16.8789L62.7419 16.2148C62.7159 16.1888 62.6117 16.0651 62.4294 15.8438C62.2472 15.6094 62.0193 15.3229 61.7458 14.9844C61.4724 14.6328 61.1664 14.2487 60.8279 13.832C60.5024 13.4154 60.1833 13.0052 59.8708 12.6016C59.5714 12.1979 59.2914 11.8268 59.031 11.4883C58.7836 11.1367 58.5948 10.8568 58.4646 10.6484C58.2432 10.2839 57.9893 9.88021 57.7029 9.4375C57.4294 8.99479 57.143 8.5651 56.8435 8.14844C56.8956 8.57812 56.9412 9.04036 56.9802 9.53516C57.0193 10.0169 57.0518 10.4922 57.0779 10.9609C57.1039 11.4167 57.1235 11.8464 57.1365 12.25C57.1625 12.6406 57.1755 12.9727 57.1755 13.2461C57.1755 13.4935 57.1886 13.8451 57.2146 14.3008C57.2537 14.7565 57.2927 15.2578 57.3318 15.8047C57.3839 16.3385 57.436 16.8919 57.488 17.4648C57.5401 18.0247 57.5922 18.5391 57.6443 19.0078C57.6964 19.4635 57.7354 19.8477 57.7615 20.1602C57.8005 20.4596 57.8201 20.6159 57.8201 20.6289C57.8201 20.7721 57.768 20.8958 57.6638 21C57.5727 21.1042 57.4425 21.1628 57.2732 21.1758C57.13 21.1758 57.0063 21.1302 56.9021 21.0391C56.811 20.9479 56.7524 20.8307 56.7263 20.6875C56.7263 20.6484 56.7068 20.4727 56.6677 20.1602C56.6417 19.8477 56.6026 19.4635 56.5505 19.0078C56.4985 18.5391 56.4464 18.0247 56.3943 17.4648C56.3422 16.9049 56.2901 16.3581 56.238 15.8242C56.199 15.2773 56.1599 14.776 56.1208 14.3203C56.0948 13.8646 56.0818 13.5065 56.0818 13.2461C56.0818 12.8555 56.0623 12.3542 56.0232 11.7422C55.9972 11.1302 55.9581 10.5052 55.906 9.86719C55.8539 9.21615 55.7953 8.59766 55.7302 8.01172C55.6651 7.42578 55.6 6.95703 55.5349 6.60547C55.5349 6.57943 55.5349 6.55339 55.5349 6.52734C55.5479 6.48828 55.5479 6.42318 55.5349 6.33203C55.5349 6.17578 55.587 6.04557 55.6912 5.94141C55.8214 5.83724 55.9516 5.78516 56.0818 5.78516C56.238 5.78516 56.3682 5.83724 56.4724 5.94141C56.7198 6.1888 56.9737 6.48828 57.2341 6.83984C57.4945 7.17839 57.7485 7.53646 57.9958 7.91406C58.2563 8.27865 58.5037 8.64974 58.738 9.02734C58.9854 9.40495 59.2068 9.75 59.4021 10.0625C59.5583 10.3099 59.8123 10.6745 60.1638 11.1562C60.5154 11.625 60.893 12.1198 61.2966 12.6406C61.7003 13.1615 62.0909 13.6628 62.4685 14.1445C62.8591 14.6133 63.1521 14.9714 63.3474 15.2188C63.5557 14.8281 63.7836 14.418 64.031 13.9883C64.2914 13.5456 64.5388 13.1224 64.7732 12.7188C65.0076 12.3021 65.2289 11.9245 65.4373 11.5859C65.6456 11.2344 65.8149 10.9674 65.9451 10.7852C66.1534 10.4987 66.3813 10.1797 66.6287 9.82812C66.8761 9.47656 67.1169 9.125 67.3513 8.77344C67.5857 8.40885 67.807 8.05078 68.0154 7.69922C68.2237 7.34766 68.3865 7.02214 68.5037 6.72266C68.5297 6.65755 68.5818 6.58594 68.6599 6.50781C68.699 6.26042 68.8813 6.11068 69.2068 6.05859C69.4932 6.05859 69.669 6.20182 69.7341 6.48828C69.8123 6.85286 69.8839 7.34115 69.949 7.95312C70.0141 8.55208 70.0727 9.18359 70.1248 9.84766C70.1768 10.5117 70.2159 11.1562 70.2419 11.7812C70.281 12.3932 70.3005 12.8815 70.3005 13.2461ZM82.488 6.15625C82.6313 6.26042 82.7029 6.41016 82.7029 6.60547C82.7029 6.73568 82.6703 6.84635 82.6052 6.9375C82.3578 7.26302 82.0388 7.71224 81.6482 8.28516C81.2706 8.85807 80.8735 9.47005 80.4568 10.1211C80.0531 10.7591 79.6625 11.3841 79.2849 11.9961C78.9073 12.6081 78.6078 13.1159 78.3865 13.5195C78.3214 13.6628 78.2237 13.8385 78.0935 14.0469C77.9763 14.2422 77.8266 14.4831 77.6443 14.7695C77.6573 15.082 77.6833 15.4466 77.7224 15.8633C77.7615 16.2799 77.8005 16.7096 77.8396 17.1523C77.8917 17.5951 77.9373 18.0312 77.9763 18.4609C78.0284 18.8906 78.074 19.2812 78.113 19.6328C78.1651 19.9714 78.2042 20.2513 78.2302 20.4727C78.2563 20.694 78.2693 20.8112 78.2693 20.8242C78.2693 20.9674 78.2172 21.0846 78.113 21.1758C78.0219 21.2799 77.8917 21.3451 77.7224 21.3711C77.5792 21.3711 77.4555 21.3255 77.3513 21.2344C77.2602 21.1562 77.2016 21.0456 77.1755 20.9023C77.1755 20.8763 77.1625 20.7591 77.1365 20.5508C77.1104 20.3424 77.0779 20.082 77.0388 19.7695C76.9998 19.444 76.9542 19.0794 76.9021 18.6758C76.863 18.2721 76.8175 17.862 76.7654 17.4453C76.7263 17.0286 76.6873 16.6185 76.6482 16.2148C76.6091 15.7982 76.5831 15.4206 76.5701 15.082C76.4919 15.0039 76.4529 14.8997 76.4529 14.7695C76.4529 14.6523 76.4789 14.5612 76.531 14.4961C76.4919 14.4701 76.4464 14.418 76.3943 14.3398C76.1729 13.9492 75.8474 13.4089 75.4177 12.7188C75.0011 12.0286 74.5518 11.3125 74.0701 10.5703C73.5883 9.8151 73.1261 9.10547 72.6833 8.44141C72.2406 7.77734 71.8956 7.27604 71.6482 6.9375C71.5701 6.82031 71.531 6.70964 71.531 6.60547C71.531 6.42318 71.6026 6.27344 71.7458 6.15625C71.85 6.09115 71.9607 6.05859 72.0779 6.05859C72.156 6.05859 72.2341 6.07812 72.3123 6.11719C72.3904 6.14323 72.4555 6.19531 72.5076 6.27344C72.755 6.59896 73.087 7.07422 73.5037 7.69922C73.9203 8.3112 74.3565 8.96875 74.8123 9.67188C75.268 10.375 75.7042 11.0716 76.1208 11.7617C76.5505 12.4388 76.8956 13.0052 77.156 13.4609C77.2732 13.2656 77.3708 13.1094 77.449 12.9922C77.5792 12.7448 77.7485 12.4388 77.9568 12.0742C78.1781 11.7096 78.419 11.319 78.6794 10.9023C78.9399 10.4857 79.2068 10.056 79.4802 9.61328C79.7667 9.17057 80.0466 8.74089 80.3201 8.32422C80.5935 7.90755 80.8474 7.52344 81.0818 7.17188C81.3292 6.80729 81.544 6.50781 81.7263 6.27344C81.8305 6.13021 81.9802 6.05859 82.1755 6.05859C82.2797 6.05859 82.3839 6.09115 82.488 6.15625ZM100.144 6.52734C100.288 6.54036 100.405 6.60547 100.496 6.72266C100.587 6.82682 100.626 6.96354 100.613 7.13281C100.6 7.27604 100.541 7.39323 100.437 7.48438C100.333 7.5625 100.19 7.60156 100.008 7.60156L99.6365 7.5625C99.3761 7.53646 99.0115 7.50391 98.5427 7.46484C98.074 7.42578 97.5076 7.39323 96.8435 7.36719C96.1925 7.34115 95.4633 7.32812 94.656 7.32812C94.5518 7.32812 94.4542 7.32812 94.363 7.32812C94.2719 7.32812 94.1742 7.33464 94.0701 7.34766C94.1222 7.77734 94.1742 8.27865 94.2263 8.85156C94.2914 9.41146 94.3435 9.97786 94.3826 10.5508C94.4216 11.1237 94.4542 11.6706 94.4802 12.1914C94.5063 12.6992 94.5193 13.1159 94.5193 13.4414C94.5193 13.6888 94.5323 14.0404 94.5583 14.4961C94.5974 14.9518 94.6365 15.4531 94.6755 16C94.7276 16.5339 94.7797 17.0872 94.8318 17.6602C94.8839 18.2201 94.936 18.7344 94.988 19.2031C95.0401 19.6589 95.0792 20.043 95.1052 20.3555C95.1443 20.6549 95.1638 20.8112 95.1638 20.8242C95.1638 20.9674 95.1117 21.0846 95.0076 21.1758C94.9164 21.2799 94.7862 21.3451 94.6169 21.3711C94.4737 21.3711 94.35 21.3255 94.2458 21.2344C94.1417 21.1432 94.0831 21.026 94.0701 20.8828C94.0701 20.8438 94.0505 20.668 94.0115 20.3555C93.9724 20.043 93.9268 19.6589 93.8748 19.2031C93.8357 18.7344 93.7901 18.2201 93.738 17.6602C93.686 17.1003 93.6339 16.5534 93.5818 16.0195C93.5427 15.4727 93.5037 14.9714 93.4646 14.5156C93.4386 14.0599 93.4255 13.7018 93.4255 13.4414C93.4255 13.0898 93.4125 12.6471 93.3865 12.1133C93.3604 11.5794 93.3214 11.026 93.2693 10.4531C93.2302 9.88021 93.1847 9.32031 93.1326 8.77344C93.0805 8.22656 93.0284 7.75781 92.9763 7.36719C92.2732 7.39323 91.5831 7.42578 90.906 7.46484C90.2289 7.49089 89.63 7.52344 89.1091 7.5625C88.5753 7.60156 88.1456 7.63411 87.8201 7.66016C87.4815 7.6862 87.3057 7.69922 87.2927 7.69922C87.1495 7.71224 87.0258 7.66667 86.9216 7.5625C86.8175 7.45833 86.7589 7.32161 86.7458 7.15234C86.7458 7.00911 86.7914 6.88542 86.8826 6.78125C86.9737 6.67708 87.0909 6.61849 87.2341 6.60547C87.2472 6.60547 87.4294 6.59245 87.781 6.56641C88.1326 6.54036 88.5948 6.50781 89.1677 6.46875C89.7406 6.42969 90.3852 6.39062 91.1013 6.35156C91.8305 6.3125 92.5662 6.27995 93.3083 6.25391C93.3344 6.25391 93.3604 6.25391 93.3865 6.25391C93.4125 6.24089 93.4646 6.24089 93.5427 6.25391C93.725 6.25391 93.9073 6.25391 94.0896 6.25391C94.2849 6.24089 94.4737 6.23438 94.656 6.23438C95.4893 6.23438 96.238 6.2474 96.9021 6.27344C97.5662 6.29948 98.1326 6.33203 98.6013 6.37109C99.0831 6.41016 99.4542 6.44922 99.7146 6.48828C99.975 6.51432 100.118 6.52734 100.144 6.52734ZM109.715 13.2461C109.715 13.4935 109.728 13.8451 109.754 14.3008C109.793 14.7565 109.832 15.2578 109.871 15.8047C109.923 16.3385 109.975 16.8919 110.027 17.4648C110.079 18.0247 110.125 18.5391 110.164 19.0078C110.216 19.4635 110.255 19.8477 110.281 20.1602C110.32 20.4596 110.34 20.6159 110.34 20.6289C110.34 20.7721 110.294 20.8958 110.203 21C110.112 21.1042 109.975 21.1628 109.793 21.1758C109.649 21.1758 109.526 21.1302 109.422 21.0391C109.33 20.9479 109.278 20.8307 109.265 20.6875C109.265 20.6484 109.246 20.5052 109.207 20.2578C109.181 19.9974 109.148 19.6784 109.109 19.3008C109.07 18.9102 109.024 18.474 108.972 17.9922C108.92 17.5104 108.868 17.0221 108.816 16.5273C108.777 16.0326 108.738 15.5573 108.699 15.1016C108.66 14.6458 108.634 14.2422 108.621 13.8906C108.608 13.8906 108.302 13.8451 107.703 13.7539C107.117 13.6628 106.316 13.6172 105.301 13.6172C104.923 13.6172 104.532 13.6302 104.129 13.6562C103.738 13.6823 103.36 13.7148 102.996 13.7539C102.631 13.7799 102.293 13.8125 101.98 13.8516C101.668 13.8776 101.407 13.9036 101.199 13.9297C101.212 14.2682 101.238 14.6719 101.277 15.1406C101.316 15.5964 101.355 16.0716 101.394 16.5664C101.446 17.0612 101.492 17.5495 101.531 18.0312C101.583 18.5 101.629 18.9297 101.668 19.3203C101.707 19.6979 101.739 20.0104 101.765 20.2578C101.791 20.4922 101.804 20.6159 101.804 20.6289C101.804 20.7721 101.759 20.8958 101.668 21C101.577 21.1042 101.44 21.1628 101.258 21.1758C101.114 21.1758 100.991 21.1302 100.886 21.0391C100.795 20.9479 100.743 20.8307 100.73 20.6875C100.717 20.6484 100.691 20.4727 100.652 20.1602C100.626 19.8477 100.587 19.4635 100.535 19.0078C100.496 18.5391 100.45 18.0247 100.398 17.4648C100.346 16.9049 100.294 16.3581 100.242 15.8242C100.203 15.2773 100.164 14.776 100.125 14.3203C100.099 13.8646 100.086 13.5065 100.086 13.2461C100.086 12.8555 100.066 12.3542 100.027 11.7422C100.001 11.1302 99.962 10.5052 99.9099 9.86719C99.8578 9.21615 99.7992 8.59766 99.7341 8.01172C99.669 7.42578 99.6039 6.95703 99.5388 6.60547C99.5388 6.47526 99.5844 6.35807 99.6755 6.25391C99.7667 6.14974 99.9034 6.08464 100.086 6.05859C100.216 6.05859 100.327 6.09766 100.418 6.17578C100.522 6.25391 100.587 6.35807 100.613 6.48828C100.678 6.82682 100.743 7.26953 100.808 7.81641C100.873 8.35026 100.926 8.92318 100.965 9.53516C101.017 10.1341 101.056 10.7266 101.082 11.3125C101.121 11.8984 101.147 12.3997 101.16 12.8164C101.381 12.7904 101.648 12.7643 101.961 12.7383C102.273 12.6992 102.612 12.6667 102.976 12.6406C103.354 12.6016 103.738 12.5755 104.129 12.5625C104.532 12.5365 104.923 12.5234 105.301 12.5234C106.134 12.5234 106.83 12.556 107.39 12.6211C107.963 12.6862 108.367 12.7383 108.601 12.7773C108.588 12.3346 108.562 11.8268 108.523 11.2539C108.497 10.668 108.458 10.0885 108.406 9.51562C108.354 8.92969 108.295 8.3763 108.23 7.85547C108.178 7.33464 108.126 6.91797 108.074 6.60547C108.074 6.47526 108.12 6.35807 108.211 6.25391C108.302 6.14974 108.439 6.08464 108.621 6.05859C108.751 6.05859 108.862 6.09766 108.953 6.17578C109.057 6.25391 109.122 6.35807 109.148 6.48828C109.226 6.85286 109.298 7.34115 109.363 7.95312C109.428 8.55208 109.487 9.18359 109.539 9.84766C109.591 10.5117 109.63 11.1562 109.656 11.7812C109.695 12.3932 109.715 12.8815 109.715 13.2461ZM122.429 20.0039C122.716 20.069 122.859 20.2839 122.859 20.6484C122.833 20.7917 122.761 20.9023 122.644 20.9805C122.54 21.0586 122.397 21.0911 122.215 21.0781C122.202 21.0781 121.896 21.0391 121.297 20.9609C120.711 20.8698 119.91 20.8242 118.894 20.8242C118.386 20.8242 117.866 20.8438 117.332 20.8828C116.798 20.9219 116.303 20.9609 115.847 21C115.405 21.0391 115.034 21.0781 114.734 21.1172C114.448 21.1562 114.291 21.1758 114.265 21.1758H113.894C113.751 21.1758 113.627 21.1302 113.523 21.0391C113.419 20.9479 113.36 20.8307 113.347 20.6875C113.334 20.6484 113.308 20.4727 113.269 20.1602C113.243 19.8477 113.204 19.4635 113.152 19.0078C113.113 18.5391 113.067 18.0247 113.015 17.4648C112.963 16.9049 112.911 16.3581 112.859 15.8242C112.82 15.2773 112.781 14.776 112.742 14.3203C112.716 13.8646 112.703 13.5065 112.703 13.2461C112.703 12.8555 112.683 12.3542 112.644 11.7422C112.618 11.1302 112.579 10.5052 112.527 9.86719C112.475 9.21615 112.416 8.59766 112.351 8.01172C112.286 7.42578 112.221 6.95703 112.156 6.60547C112.156 6.47526 112.202 6.35807 112.293 6.25391C112.384 6.14974 112.521 6.08464 112.703 6.05859C112.989 6.05859 113.165 6.19531 113.23 6.46875C113.321 6.33854 113.445 6.26042 113.601 6.23438C113.627 6.23438 113.784 6.21484 114.07 6.17578C114.37 6.13672 114.741 6.09766 115.183 6.05859C115.639 6.00651 116.14 5.96094 116.687 5.92188C117.234 5.88281 117.774 5.86328 118.308 5.86328C119.376 5.86328 120.222 5.90885 120.847 6C121.485 6.09115 121.817 6.14323 121.844 6.15625C122.13 6.22135 122.273 6.4362 122.273 6.80078C122.208 7.08724 121.987 7.23047 121.609 7.23047C121.349 7.19141 121.049 7.14583 120.711 7.09375C120.424 7.06771 120.073 7.04167 119.656 7.01562C119.252 6.97656 118.803 6.95703 118.308 6.95703C117.801 6.95703 117.28 6.97656 116.746 7.01562C116.212 7.05469 115.717 7.10026 115.261 7.15234C114.819 7.19141 114.448 7.23047 114.148 7.26953C113.862 7.30859 113.705 7.32812 113.679 7.32812C113.562 7.32812 113.452 7.29557 113.347 7.23047C113.413 7.66016 113.471 8.15495 113.523 8.71484C113.575 9.27474 113.621 9.83464 113.66 10.3945C113.699 10.9544 113.732 11.4883 113.758 11.9961C113.784 12.4909 113.797 12.901 113.797 13.2266C113.914 13.2135 114.103 13.194 114.363 13.168C114.623 13.1289 114.929 13.0964 115.281 13.0703C115.646 13.0312 116.043 12.9987 116.472 12.9727C116.902 12.9466 117.345 12.9206 117.801 12.8945C117.944 12.8945 118.067 12.9466 118.172 13.0508C118.289 13.1549 118.347 13.2852 118.347 13.4414C118.347 13.5846 118.295 13.7148 118.191 13.832C118.087 13.9362 117.963 13.9883 117.82 13.9883C117.351 14.0143 116.883 14.0469 116.414 14.0859C115.958 14.112 115.548 14.1445 115.183 14.1836C114.819 14.2096 114.513 14.2422 114.265 14.2812C114.018 14.3073 113.875 14.3203 113.836 14.3203C113.862 14.763 113.901 15.2578 113.953 15.8047C114.005 16.3385 114.057 16.8789 114.109 17.4258C114.161 17.9596 114.207 18.4609 114.246 18.9297C114.298 19.3984 114.344 19.776 114.383 20.0625C114.539 20.0495 114.773 20.0234 115.086 19.9844C115.411 19.9453 115.782 19.9062 116.199 19.8672C116.616 19.8281 117.052 19.7956 117.508 19.7695C117.976 19.7435 118.439 19.7305 118.894 19.7305C119.962 19.7305 120.808 19.776 121.433 19.8672C122.071 19.9583 122.403 20.0039 122.429 20.0039ZM126.609 13.793C126.883 13.806 127.163 13.8125 127.449 13.8125C127.735 13.8125 128.015 13.8125 128.289 13.8125C128.823 13.8125 129.317 13.7995 129.773 13.7734C130.242 13.7474 130.639 13.6888 130.965 13.5977C131.42 13.4674 131.772 13.3177 132.019 13.1484C132.28 12.9661 132.475 12.7708 132.605 12.5625C132.735 12.3542 132.82 12.1263 132.859 11.8789C132.911 11.6315 132.95 11.3776 132.976 11.1172L133.015 10.7266C133.015 10.5052 132.97 10.2513 132.879 9.96484C132.801 9.66536 132.67 9.3724 132.488 9.08594C132.306 8.79948 132.078 8.53906 131.804 8.30469C131.531 8.07031 131.212 7.90104 130.847 7.79688C130.144 7.61458 129.539 7.48438 129.031 7.40625C128.523 7.32812 128.061 7.28906 127.644 7.28906C127.189 7.28906 126.765 7.32812 126.375 7.40625C125.997 7.48438 125.58 7.57552 125.125 7.67969C125.177 8.1224 125.222 8.61068 125.261 9.14453C125.314 9.66536 125.353 10.1797 125.379 10.6875C125.418 11.1953 125.444 11.6771 125.457 12.1328C125.483 12.5885 125.496 12.9596 125.496 13.2461C125.496 13.3112 125.496 13.3893 125.496 13.4805C125.496 13.5716 125.502 13.6693 125.515 13.7734C125.698 13.7734 125.88 13.7734 126.062 13.7734C126.245 13.7734 126.427 13.7799 126.609 13.793ZM133.269 17.7188C133.946 18.5391 134.448 19.2227 134.773 19.7695C135.099 20.3164 135.268 20.6029 135.281 20.6289C135.32 20.707 135.34 20.7917 135.34 20.8828C135.34 20.987 135.314 21.0781 135.261 21.1562C135.222 21.2474 135.151 21.319 135.047 21.3711C134.969 21.4102 134.884 21.4297 134.793 21.4297C134.571 21.4297 134.415 21.332 134.324 21.1367C134.311 21.1367 134.148 20.8763 133.836 20.3555C133.536 19.8346 133.067 19.1836 132.429 18.4023C132.104 18.0117 131.759 17.6211 131.394 17.2305C131.03 16.8398 130.691 16.4883 130.379 16.1758C130.066 15.8633 129.806 15.6029 129.597 15.3945L129.265 15.1016C129.213 15.0495 129.168 14.9844 129.129 14.9062H128.328C128.028 14.9062 127.735 14.9062 127.449 14.9062C127.163 14.9062 126.87 14.8997 126.57 14.8867C126.401 14.8737 126.232 14.8672 126.062 14.8672C125.906 14.8672 125.75 14.8672 125.594 14.8672C125.633 15.4401 125.678 16.0586 125.73 16.7227C125.795 17.3737 125.854 17.9857 125.906 18.5586C125.971 19.1315 126.023 19.6133 126.062 20.0039C126.114 20.3945 126.14 20.6029 126.14 20.6289C126.14 20.7721 126.088 20.8958 125.984 21C125.893 21.1042 125.763 21.1628 125.594 21.1758C125.45 21.1758 125.327 21.1302 125.222 21.0391C125.131 20.9479 125.073 20.8307 125.047 20.6875C125.047 20.6484 125.027 20.4727 124.988 20.1602C124.962 19.8477 124.923 19.4635 124.871 19.0078C124.819 18.5391 124.767 18.0247 124.715 17.4648C124.663 16.9049 124.61 16.3581 124.558 15.8242C124.519 15.2773 124.48 14.776 124.441 14.3203C124.415 13.8646 124.402 13.5065 124.402 13.2461C124.402 12.9206 124.389 12.5234 124.363 12.0547C124.35 11.5859 124.324 11.0911 124.285 10.5703C124.246 10.0495 124.2 9.53516 124.148 9.02734C124.109 8.50651 124.064 8.03776 124.011 7.62109C123.985 7.59505 123.966 7.5625 123.953 7.52344C123.94 7.47135 123.92 7.39323 123.894 7.28906C123.894 7.23698 123.907 7.17188 123.933 7.09375C123.92 7.02865 123.907 6.95703 123.894 6.87891C123.894 6.80078 123.881 6.70964 123.855 6.60547C123.855 6.47526 123.901 6.35807 123.992 6.25391C124.083 6.14974 124.22 6.08464 124.402 6.05859C124.532 6.05859 124.649 6.10417 124.754 6.19531C124.858 6.28646 124.929 6.42318 124.969 6.60547C125.424 6.48828 125.86 6.39062 126.277 6.3125C126.694 6.23438 127.149 6.19531 127.644 6.19531C128.1 6.19531 128.601 6.24089 129.148 6.33203C129.695 6.41016 130.353 6.54688 131.121 6.74219C131.603 6.8724 132.032 7.08724 132.41 7.38672C132.788 7.6862 133.1 8.02474 133.347 8.40234C133.595 8.77995 133.784 9.17708 133.914 9.59375C134.044 9.9974 134.109 10.375 134.109 10.7266C134.109 10.8438 134.103 10.9349 134.09 11L134.07 11.2344C134.044 11.5078 133.998 11.8073 133.933 12.1328C133.868 12.4453 133.745 12.7578 133.562 13.0703C133.38 13.3828 133.107 13.6823 132.742 13.9688C132.377 14.2422 131.883 14.4635 131.258 14.6328C131.153 14.6719 131.036 14.7044 130.906 14.7305C130.789 14.7435 130.659 14.763 130.515 14.7891C130.685 14.9453 130.88 15.1341 131.101 15.3555C131.323 15.5768 131.551 15.8177 131.785 16.0781C132.032 16.3255 132.28 16.5924 132.527 16.8789C132.788 17.1523 133.035 17.4323 133.269 17.7188ZM141.824 14.3398C142.527 14.3398 143.133 14.3659 143.64 14.418C144.148 14.457 144.552 14.4961 144.851 14.5352C144.786 14.3529 144.728 14.1901 144.676 14.0469C144.636 13.9036 144.597 13.7799 144.558 13.6758C144.48 13.3633 144.37 12.9857 144.226 12.543C144.083 12.0872 143.92 11.612 143.738 11.1172C143.569 10.6094 143.393 10.1081 143.211 9.61328C143.028 9.10547 142.853 8.64323 142.683 8.22656C142.488 8.64323 142.28 9.10547 142.058 9.61328C141.85 10.1081 141.642 10.6094 141.433 11.1172C141.238 11.612 141.049 12.0872 140.867 12.543C140.698 12.9987 140.561 13.3828 140.457 13.6953C140.431 13.7995 140.392 13.9102 140.34 14.0273C140.301 14.1315 140.255 14.2552 140.203 14.3984C140.724 14.3594 141.264 14.3398 141.824 14.3398ZM145.613 13.3828C145.678 13.6302 145.789 13.9818 145.945 14.4375C146.114 14.8932 146.297 15.3945 146.492 15.9414C146.687 16.4753 146.889 17.0221 147.097 17.582C147.319 18.1419 147.514 18.6562 147.683 19.125C147.853 19.5807 147.996 19.9583 148.113 20.2578C148.23 20.5443 148.289 20.694 148.289 20.707C148.315 20.7591 148.328 20.8242 148.328 20.9023C148.328 21.1497 148.211 21.319 147.976 21.4102C147.937 21.4362 147.872 21.4492 147.781 21.4492C147.677 21.4492 147.573 21.4167 147.469 21.3516C147.377 21.2995 147.312 21.2148 147.273 21.0977C147.26 21.0586 147.182 20.8633 147.039 20.5117C146.896 20.1471 146.72 19.7044 146.511 19.1836C146.316 18.6628 146.095 18.0964 145.847 17.4844C145.6 16.8594 145.359 16.2669 145.125 15.707C144.864 15.668 144.565 15.6224 144.226 15.5703C143.94 15.5443 143.588 15.5182 143.172 15.4922C142.768 15.4531 142.319 15.4336 141.824 15.4336C141.485 15.4336 141.134 15.4466 140.769 15.4727C140.418 15.4857 140.073 15.5052 139.734 15.5312C139.5 16.0911 139.246 16.6901 138.972 17.3281C138.699 17.9661 138.439 18.5586 138.191 19.1055C137.944 19.6523 137.735 20.1211 137.566 20.5117C137.397 20.8893 137.306 21.0977 137.293 21.1367C137.189 21.3451 137.019 21.4492 136.785 21.4492C136.694 21.4492 136.622 21.4362 136.57 21.4102C136.349 21.306 136.238 21.1367 136.238 20.9023C136.238 20.8372 136.258 20.7656 136.297 20.6875C136.297 20.6745 136.368 20.5117 136.511 20.1992C136.655 19.8737 136.83 19.4701 137.039 18.9883C137.26 18.4935 137.501 17.9531 137.761 17.3672C138.022 16.7682 138.269 16.1953 138.504 15.6484C138.139 15.6875 137.84 15.7266 137.605 15.7656C137.371 15.7917 137.234 15.8047 137.195 15.8047C137.052 15.8047 136.928 15.7591 136.824 15.668C136.733 15.5768 136.674 15.4401 136.648 15.2578C136.648 15.1146 136.687 14.9974 136.765 14.9062C136.857 14.8021 136.974 14.737 137.117 14.7109C137.143 14.7109 137.325 14.6914 137.664 14.6523C138.015 14.6003 138.452 14.5482 138.972 14.4961C139.077 14.2617 139.161 14.0469 139.226 13.8516C139.304 13.6562 139.37 13.487 139.422 13.3438C139.539 12.9922 139.708 12.5299 139.929 11.957C140.164 11.3711 140.411 10.7656 140.672 10.1406C140.932 9.5026 141.192 8.89062 141.453 8.30469C141.726 7.70573 141.961 7.21094 142.156 6.82031C142.182 6.61198 142.286 6.46224 142.469 6.37109C142.521 6.34505 142.605 6.33203 142.722 6.33203C142.827 6.33203 142.918 6.35156 142.996 6.39062C143.165 6.48177 143.263 6.63151 143.289 6.83984C143.458 7.23047 143.653 7.72526 143.875 8.32422C144.109 8.92318 144.337 9.54167 144.558 10.1797C144.793 10.8047 145.001 11.4102 145.183 11.9961C145.366 12.569 145.509 13.0312 145.613 13.3828ZM158.699 10.7266C158.699 10.5052 158.653 10.2513 158.562 9.96484C158.484 9.66536 158.354 9.3724 158.172 9.08594C157.989 8.79948 157.761 8.53906 157.488 8.30469C157.215 8.07031 156.896 7.90104 156.531 7.79688C155.828 7.61458 155.222 7.48438 154.715 7.40625C154.207 7.32812 153.745 7.28906 153.328 7.28906C152.872 7.28906 152.449 7.32812 152.058 7.40625C151.681 7.48438 151.264 7.57552 150.808 7.67969C150.86 8.1224 150.906 8.61068 150.945 9.14453C150.997 9.66536 151.036 10.1797 151.062 10.6875C151.101 11.1953 151.127 11.6771 151.14 12.1328C151.166 12.5885 151.179 12.9596 151.179 13.2461C151.179 13.3112 151.179 13.3893 151.179 13.4805C151.179 13.5716 151.186 13.6693 151.199 13.7734C151.381 13.7734 151.557 13.7734 151.726 13.7734C151.909 13.7734 152.091 13.7799 152.273 13.793C152.56 13.806 152.84 13.8125 153.113 13.8125C153.399 13.8125 153.686 13.8125 153.972 13.8125C154.493 13.8125 154.982 13.7995 155.437 13.7734C155.906 13.7474 156.31 13.6888 156.648 13.5977C157.091 13.4674 157.442 13.3177 157.703 13.1484C157.963 12.9661 158.159 12.7708 158.289 12.5625C158.419 12.3542 158.504 12.1263 158.543 11.8789C158.595 11.6315 158.634 11.3776 158.66 11.1172L158.679 10.8828L158.699 10.7266ZM156.804 6.74219C157.286 6.8724 157.716 7.08724 158.094 7.38672C158.471 7.6862 158.784 8.02474 159.031 8.40234C159.278 8.77995 159.467 9.17708 159.597 9.59375C159.728 9.9974 159.793 10.375 159.793 10.7266C159.793 10.7786 159.786 10.8242 159.773 10.8633C159.773 10.9023 159.773 10.9479 159.773 11L159.754 11.2344C159.728 11.5078 159.682 11.8073 159.617 12.1328C159.552 12.4453 159.428 12.7578 159.246 13.0703C159.064 13.3828 158.79 13.6823 158.426 13.9688C158.061 14.2422 157.566 14.4635 156.941 14.6328C156.551 14.75 156.101 14.8281 155.594 14.8672C155.099 14.8932 154.565 14.9062 153.992 14.9062C153.705 14.9062 153.419 14.9062 153.133 14.9062C152.846 14.9062 152.553 14.8997 152.254 14.8867C152.084 14.8737 151.915 14.8672 151.746 14.8672C151.59 14.8672 151.427 14.8672 151.258 14.8672C151.297 15.4401 151.349 16.0586 151.414 16.7227C151.479 17.3737 151.538 17.9857 151.59 18.5586C151.655 19.1315 151.707 19.6133 151.746 20.0039C151.798 20.3945 151.824 20.6029 151.824 20.6289C151.824 20.7721 151.772 20.8958 151.668 21C151.577 21.1042 151.446 21.1628 151.277 21.1758C151.134 21.1758 151.01 21.1302 150.906 21.0391C150.802 20.9479 150.743 20.8307 150.73 20.6875C150.717 20.6484 150.691 20.4727 150.652 20.1602C150.626 19.8477 150.587 19.4635 150.535 19.0078C150.496 18.5391 150.45 18.0247 150.398 17.4648C150.346 16.9049 150.294 16.3581 150.242 15.8242C150.203 15.2773 150.164 14.776 150.125 14.3203C150.099 13.8646 150.086 13.5065 150.086 13.2461C150.086 12.9206 150.073 12.5234 150.047 12.0547C150.034 11.5859 150.008 11.0911 149.969 10.5703C149.929 10.0495 149.884 9.53516 149.832 9.02734C149.793 8.50651 149.747 8.03776 149.695 7.62109C149.669 7.59505 149.649 7.5625 149.636 7.52344C149.623 7.47135 149.604 7.39323 149.578 7.28906C149.578 7.23698 149.591 7.17188 149.617 7.09375C149.604 7.02865 149.591 6.95703 149.578 6.87891C149.578 6.80078 149.565 6.70964 149.539 6.60547C149.539 6.47526 149.584 6.35807 149.676 6.25391C149.767 6.14974 149.903 6.08464 150.086 6.05859C150.216 6.05859 150.333 6.10417 150.437 6.19531C150.541 6.28646 150.607 6.42318 150.633 6.60547C151.101 6.48828 151.544 6.39062 151.961 6.3125C152.377 6.23438 152.827 6.19531 153.308 6.19531C153.764 6.19531 154.265 6.24089 154.812 6.33203C155.372 6.41016 156.036 6.54688 156.804 6.74219ZM163.015 13.2461C163.015 13.4935 163.028 13.8451 163.054 14.3008C163.094 14.7565 163.133 15.2578 163.172 15.8047C163.224 16.3385 163.276 16.8919 163.328 17.4648C163.38 18.0247 163.432 18.5391 163.484 19.0078C163.536 19.4635 163.575 19.8477 163.601 20.1602C163.64 20.4596 163.66 20.6159 163.66 20.6289C163.66 20.7721 163.608 20.8958 163.504 21C163.413 21.1042 163.282 21.1628 163.113 21.1758C162.97 21.1758 162.846 21.1302 162.742 21.0391C162.651 20.9479 162.592 20.8307 162.566 20.6875C162.566 20.6484 162.547 20.4727 162.508 20.1602C162.482 19.8477 162.442 19.4635 162.39 19.0078C162.338 18.5391 162.286 18.0247 162.234 17.4648C162.182 16.9049 162.13 16.3581 162.078 15.8242C162.039 15.2773 162 14.776 161.961 14.3203C161.935 13.8646 161.922 13.5065 161.922 13.2461C161.922 12.8555 161.902 12.3542 161.863 11.7422C161.837 11.1302 161.798 10.5052 161.746 9.86719C161.694 9.21615 161.635 8.59766 161.57 8.01172C161.505 7.42578 161.44 6.95703 161.375 6.60547C161.375 6.47526 161.42 6.35807 161.511 6.25391C161.603 6.14974 161.739 6.08464 161.922 6.05859C162.052 6.05859 162.169 6.09766 162.273 6.17578C162.377 6.25391 162.442 6.35807 162.469 6.48828C162.534 6.85286 162.599 7.34115 162.664 7.95312C162.729 8.55208 162.788 9.18359 162.84 9.84766C162.892 10.5117 162.931 11.1562 162.957 11.7812C162.996 12.3932 163.015 12.8815 163.015 13.2461ZM172.273 11.293C172.898 11.4622 173.458 11.7422 173.953 12.1328C174.448 12.5104 174.864 12.9466 175.203 13.4414C175.541 13.9232 175.802 14.431 175.984 14.9648C176.166 15.4857 176.258 15.974 176.258 16.4297L176.238 16.7227C176.225 17.0742 176.199 17.4518 176.16 17.8555C176.121 18.2461 176.004 18.6367 175.808 19.0273C175.613 19.4049 175.301 19.763 174.871 20.1016C174.454 20.4271 173.868 20.694 173.113 20.9023C172.735 21.0195 172.39 21.0977 172.078 21.1367C171.778 21.1888 171.485 21.2148 171.199 21.2148C170.782 21.2148 170.366 21.1693 169.949 21.0781C169.545 20.987 169.051 20.8633 168.465 20.707C167.931 20.5768 167.475 20.3685 167.097 20.082C166.72 19.7826 166.407 19.4896 166.16 19.2031C165.913 18.9036 165.73 18.6432 165.613 18.4219C165.496 18.1875 165.431 18.0573 165.418 18.0312C165.379 17.9792 165.359 17.9076 165.359 17.8164C165.359 17.5951 165.47 17.4258 165.691 17.3086C165.795 17.2826 165.867 17.2695 165.906 17.2695C166.01 17.2695 166.108 17.3021 166.199 17.3672C166.303 17.4193 166.375 17.4974 166.414 17.6016L166.551 17.8555C166.642 18.0378 166.785 18.2461 166.98 18.4805C167.176 18.7018 167.423 18.9297 167.722 19.1641C168.022 19.3854 168.38 19.5547 168.797 19.6719C169.344 19.8151 169.793 19.9258 170.144 20.0039C170.509 20.082 170.86 20.1211 171.199 20.1211C171.642 20.1211 172.182 20.0365 172.82 19.8672C173.38 19.6979 173.816 19.5026 174.129 19.2812C174.441 19.0599 174.669 18.8125 174.812 18.5391C174.955 18.2656 175.04 17.9727 175.066 17.6602C175.105 17.3477 175.131 17.0221 175.144 16.6836L175.164 16.332C175.164 16.0586 175.092 15.7201 174.949 15.3164C174.819 14.9128 174.623 14.5156 174.363 14.125C174.103 13.7344 173.771 13.3763 173.367 13.0508C172.976 12.7253 172.521 12.4974 172 12.3672C171.648 12.263 171.271 12.1914 170.867 12.1523C170.476 12.1133 170.086 12.0742 169.695 12.0352C169.239 11.9961 168.79 11.9505 168.347 11.8984C167.918 11.8464 167.527 11.7552 167.176 11.625C166.824 11.4818 166.531 11.293 166.297 11.0586C166.075 10.8112 165.945 10.4792 165.906 10.0625C165.906 10.0104 165.899 9.96484 165.886 9.92578C165.886 9.88672 165.886 9.84766 165.886 9.80859C165.886 9.30078 165.984 8.87109 166.179 8.51953C166.388 8.15495 166.635 7.84896 166.922 7.60156C167.221 7.35417 167.527 7.15234 167.84 6.99609C168.165 6.83984 168.445 6.70964 168.679 6.60547C168.979 6.46224 169.337 6.36458 169.754 6.3125C170.183 6.2474 170.646 6.21484 171.14 6.21484C171.583 6.21484 172.026 6.24089 172.469 6.29297C172.924 6.34505 173.367 6.42318 173.797 6.52734C174.083 6.59245 174.22 6.80729 174.207 7.17188C174.181 7.30208 174.109 7.40625 173.992 7.48438C173.875 7.5625 173.725 7.59505 173.543 7.58203C173.165 7.47786 172.761 7.40625 172.332 7.36719C171.915 7.32812 171.511 7.30859 171.121 7.30859C170.704 7.30859 170.32 7.33464 169.969 7.38672C169.63 7.42578 169.344 7.4974 169.109 7.60156C168.836 7.71875 168.569 7.84896 168.308 7.99219C168.048 8.1224 167.82 8.27865 167.625 8.46094C167.429 8.64323 167.273 8.85807 167.156 9.10547C167.052 9.35286 167 9.64583 167 9.98438C167.026 10.3229 167.28 10.5508 167.761 10.668C168.256 10.7852 168.927 10.8763 169.773 10.9414C170.19 10.9805 170.607 11.026 171.023 11.0781C171.453 11.1172 171.87 11.1888 172.273 11.293ZM188.054 6.52734C188.198 6.54036 188.315 6.60547 188.406 6.72266C188.497 6.82682 188.536 6.96354 188.523 7.13281C188.51 7.27604 188.452 7.39323 188.347 7.48438C188.243 7.5625 188.1 7.60156 187.918 7.60156L187.547 7.5625C187.286 7.53646 186.922 7.50391 186.453 7.46484C185.984 7.42578 185.418 7.39323 184.754 7.36719C184.103 7.34115 183.373 7.32812 182.566 7.32812C182.462 7.32812 182.364 7.32812 182.273 7.32812C182.182 7.32812 182.084 7.33464 181.98 7.34766C182.032 7.77734 182.084 8.27865 182.136 8.85156C182.202 9.41146 182.254 9.97786 182.293 10.5508C182.332 11.1237 182.364 11.6706 182.39 12.1914C182.416 12.6992 182.429 13.1159 182.429 13.4414C182.429 13.6888 182.442 14.0404 182.469 14.4961C182.508 14.9518 182.547 15.4531 182.586 16C182.638 16.5339 182.69 17.0872 182.742 17.6602C182.794 18.2201 182.846 18.7344 182.898 19.2031C182.95 19.6589 182.989 20.043 183.015 20.3555C183.054 20.6549 183.074 20.8112 183.074 20.8242C183.074 20.9674 183.022 21.0846 182.918 21.1758C182.827 21.2799 182.696 21.3451 182.527 21.3711C182.384 21.3711 182.26 21.3255 182.156 21.2344C182.052 21.1432 181.993 21.026 181.98 20.8828C181.98 20.8438 181.961 20.668 181.922 20.3555C181.883 20.043 181.837 19.6589 181.785 19.2031C181.746 18.7344 181.7 18.2201 181.648 17.6602C181.596 17.1003 181.544 16.5534 181.492 16.0195C181.453 15.4727 181.414 14.9714 181.375 14.5156C181.349 14.0599 181.336 13.7018 181.336 13.4414C181.336 13.0898 181.323 12.6471 181.297 12.1133C181.271 11.5794 181.232 11.026 181.179 10.4531C181.14 9.88021 181.095 9.32031 181.043 8.77344C180.991 8.22656 180.939 7.75781 180.886 7.36719C180.183 7.39323 179.493 7.42578 178.816 7.46484C178.139 7.49089 177.54 7.52344 177.019 7.5625C176.485 7.60156 176.056 7.63411 175.73 7.66016C175.392 7.6862 175.216 7.69922 175.203 7.69922C175.06 7.71224 174.936 7.66667 174.832 7.5625C174.728 7.45833 174.669 7.32161 174.656 7.15234C174.656 7.00911 174.702 6.88542 174.793 6.78125C174.884 6.67708 175.001 6.61849 175.144 6.60547C175.157 6.60547 175.34 6.59245 175.691 6.56641C176.043 6.54036 176.505 6.50781 177.078 6.46875C177.651 6.42969 178.295 6.39062 179.011 6.35156C179.741 6.3125 180.476 6.27995 181.219 6.25391C181.245 6.25391 181.271 6.25391 181.297 6.25391C181.323 6.24089 181.375 6.24089 181.453 6.25391C181.635 6.25391 181.817 6.25391 182 6.25391C182.195 6.24089 182.384 6.23438 182.566 6.23438C183.399 6.23438 184.148 6.2474 184.812 6.27344C185.476 6.29948 186.043 6.33203 186.511 6.37109C186.993 6.41016 187.364 6.44922 187.625 6.48828C187.885 6.51432 188.028 6.52734 188.054 6.52734Z" fill="black"/>
<path d="M194.607 7.23383L191 6.20805L192.026 2.60107" stroke="black" stroke-linecap="round" stroke-linejoin="round"/>
<path d="M191 6.20814L196.405 3.19675" stroke="black" stroke-linecap="round" stroke-linejoin="round"/>
<path d="M2.7981 21.1709L6.40498 22.197L5.3789 25.8039" stroke="black" stroke-linecap="round" stroke-linejoin="round"/>
<path d="M0.999919 25.208L6.40506 22.1971" stroke="black" stroke-linecap="round" stroke-linejoin="round"/>
</svg>
