<svg width="15" height="15" viewBox="0 0 15 15" fill="none" xmlns="http://www.w3.org/2000/svg">
<circle cx="7.5" cy="7.5" r="7" stroke="black"/>
<path d="M11.9114 12.4634V11.3604C11.9114 10.7754 11.679 10.2143 11.2653 9.80063C10.8516 9.38695 10.2906 9.15454 9.70554 9.15454H5.29377C4.70874 9.15454 4.14766 9.38695 3.73398 9.80063C3.3203 10.2143 3.08789 10.7754 3.08789 11.3604V12.4634" stroke="black" stroke-linecap="round" stroke-linejoin="round"/>
<path d="M7.49934 6.94839C8.71761 6.94839 9.70522 5.96078 9.70522 4.7425C9.70522 3.52423 8.71761 2.53662 7.49934 2.53662C6.28106 2.53662 5.29346 3.52423 5.29346 4.7425C5.29346 5.96078 6.28106 6.94839 7.49934 6.94839Z" stroke="black" stroke-linecap="round" stroke-linejoin="round"/>
</svg>
